<svg width="32" height="32" viewBox="0 0 32 32" fill="none" xmlns="http://www.w3.org/2000/svg">
<path d="M24.5592 22.4306C24.8414 22.7129 25 23.0957 25 23.4949C25 23.8941 24.8414 24.2769 24.5592 24.5592C24.2769 24.8414 23.8941 25 23.4949 25C23.0957 25 22.7129 24.8414 22.4306 24.5592L16 18.1136L9.56939 24.5592C9.28712 24.8414 8.90429 25 8.50511 25C8.10593 25 7.7231 24.8414 7.44084 24.5592C7.15857 24.2769 7 23.8941 7 23.4949C7 23.0957 7.15857 22.7129 7.44084 22.4306L13.8864 16L7.44084 9.56939C7.15857 9.28712 7 8.90429 7 8.50511C7 8.10593 7.15857 7.7231 7.44084 7.44084C7.7231 7.15857 8.10593 7 8.50511 7C8.90429 7 9.28712 7.15857 9.56939 7.44084L16 13.8864L22.4306 7.44084C22.7129 7.15857 23.0957 7 23.4949 7C23.8941 7 24.2769 7.15857 24.5592 7.44084C24.8414 7.7231 25 8.10593 25 8.50511C25 8.90429 24.8414 9.28712 24.5592 9.56939L18.1136 16L24.5592 22.4306Z" fill="#222221"/>
</svg>
