<svg width="24" height="20" viewBox="0 0 24 20" fill="none" xmlns="http://www.w3.org/2000/svg">
<g id="Layer 120">
<path id="Vector" d="M0 1.99984C0 1.64622 0.140476 1.30708 0.390524 1.05703C0.640573 0.80698 0.979711 0.666504 1.33333 0.666504H22.6667C23.0203 0.666504 23.3594 0.80698 23.6095 1.05703C23.8595 1.30708 24 1.64622 24 1.99984C24 2.35346 23.8595 2.6926 23.6095 2.94265C23.3594 3.19269 23.0203 3.33317 22.6667 3.33317H1.33333C0.979711 3.33317 0.640573 3.19269 0.390524 2.94265C0.140476 2.6926 0 2.35346 0 1.99984ZM22.6667 8.6665H1.33333C0.979711 8.6665 0.640573 8.80698 0.390524 9.05703C0.140476 9.30708 0 9.64621 0 9.99984C0 10.3535 0.140476 10.6926 0.390524 10.9426C0.640573 11.1927 0.979711 11.3332 1.33333 11.3332H22.6667C23.0203 11.3332 23.3594 11.1927 23.6095 10.9426C23.8595 10.6926 24 10.3535 24 9.99984C24 9.64621 23.8595 9.30708 23.6095 9.05703C23.3594 8.80698 23.0203 8.6665 22.6667 8.6665ZM22.6667 16.6665H1.33333C0.979711 16.6665 0.640573 16.807 0.390524 17.057C0.140476 17.3071 0 17.6462 0 17.9998C0 18.3535 0.140476 18.6926 0.390524 18.9426C0.640573 19.1927 0.979711 19.3332 1.33333 19.3332H22.6667C23.0203 19.3332 23.3594 19.1927 23.6095 18.9426C23.8595 18.6926 24 18.3535 24 17.9998C24 17.6462 23.8595 17.3071 23.6095 17.057C23.3594 16.807 23.0203 16.6665 22.6667 16.6665Z" fill="#201600"/>
</g>
</svg>
